<?xml version="1.0" encoding="utf-8"?><svg xmlns="http://www.w3.org/2000/svg" viewBox="0 0 35.39 40.76"><defs><style>.cls-1{fill:#fff;}</style></defs><title>testimonial_4</title><g id="Layer_2" data-name="Layer 2"><g id="Layer_1-2" data-name="Layer 1"><path class="cls-1" d="M17.7,0A17.69,17.69,0,0,0,3.93,28.81L1.71,40.76,9.8,33.52A17.69,17.69,0,1,0,17.7,0ZM6.59,15.81a3.62,3.62,0,0,1,1.14-2.75,6,6,0,0,1,3.13-1.44v1.8a2.38,2.38,0,0,0-1.56.87A3,3,0,0,0,9,15.81v.43h1.9V19.9H6.59Zm10.65-2.39a2.39,2.39,0,0,0-1.56.87,3,3,0,0,0-.34,1.52v.43h1.9V19.9H13V15.81a3.62,3.62,0,0,1,1.14-2.75,6,6,0,0,1,3.13-1.44Zm6.94,7A3.62,3.62,0,0,1,23,23.17a6,6,0,0,1-3.13,1.44v-1.8a2.39,2.39,0,0,0,1.56-.87,3,3,0,0,0,.34-1.52V20H19.9V16.34h4.27Zm5.24,2.75a6,6,0,0,1-3.13,1.44v-1.8a2.38,2.38,0,0,0,1.56-.87,3,3,0,0,0,.34-1.52V20h-1.9V16.34h4.27v4.09A3.62,3.62,0,0,1,29.41,23.17Z"/></g></g></svg>